<?xml version="1.0" encoding="utf-8"?>
<!-- Generator: Adobe Illustrator 21.1.0, SVG Export Plug-In . SVG Version: 6.00 Build 0)  -->
<svg version="1.1" id="Слой_1" xmlns="http://www.w3.org/2000/svg" xmlns:xlink="http://www.w3.org/1999/xlink" x="0px" y="0px"
	 viewBox="0 0 1156.4 235.5" style="enable-background:new 0 0 1156.4 235.5;" xml:space="preserve">
<style type="text/css">
	.st0{fill:url(#SVGID_1_);}
	.st1{fill:url(#SVGID_2_);}
	.st2{fill:#4778CE;}
	.st3{fill:url(#SVGID_3_);}
	.st4{fill:url(#SVGID_4_);}
	.st5{fill:url(#SVGID_5_);}
	.st6{fill:url(#SVGID_6_);}
	.st7{fill:url(#SVGID_7_);}
	.st8{fill:#707070;}
</style>
<linearGradient id="SVGID_1_" gradientUnits="userSpaceOnUse" x1="76.0837" y1="52.298" x2="88.8527" y2="117.9891">
	<stop  offset="0.3968" style="stop-color:#930006"/>
	<stop  offset="0.7619" style="stop-color:#420006"/>
</linearGradient>
<polygon class="st0" points="108.7,52.1 87.4,118.3 56.2,118.3 77.3,52.1 "/>
<linearGradient id="SVGID_2_" gradientUnits="userSpaceOnUse" x1="96.1635" y1="88.1109" x2="148.5835" y2="114.8202">
	<stop  offset="0" style="stop-color:#2358A4"/>
	<stop  offset="0.1329" style="stop-color:#4778CE"/>
</linearGradient>
<polyline class="st1" points="87.8,115.4 104.4,115.4 148.3,115.4 157.4,87.7 96.3,87.7 "/>
<path class="st2" d="M88.3,115.5l-5.1,15.6l-8.9,26.4h82.6l-11.3,34.7c0,0-70.1,0-83.3,0s-25-15.7-18.8-34.8
	c4.3-13.4,9.2-28.4,13.3-41c0.1-0.2,0.2-0.8,0.3-1"/>
<linearGradient id="SVGID_3_" gradientUnits="userSpaceOnUse" x1="72.931" y1="94.3837" x2="86.5474" y2="117.0453">
	<stop  offset="0" style="stop-color:#5BA3FF"/>
	<stop  offset="0.4008" style="stop-color:#4778CE"/>
</linearGradient>
<path class="st3" d="M57.2,115.4c10.1-29.8,40.2-27.6,40.2-27.6l-9.3,28.3L57.2,115.4z"/>
<linearGradient id="SVGID_4_" gradientUnits="userSpaceOnUse" x1="122.1529" y1="19.274" x2="173.3729" y2="57.871">
	<stop  offset="0" style="stop-color:#260006"/>
	<stop  offset="0.2123" style="stop-color:#930006"/>
</linearGradient>
<polygon class="st4" points="186.6,24.9 177.7,52.1 108.7,52.1 117.9,24.9 "/>
<linearGradient id="SVGID_5_" gradientUnits="userSpaceOnUse" x1="93.0975" y1="31.2986" x2="106.8168" y2="53.2541">
	<stop  offset="0" style="stop-color:#FF1C45"/>
	<stop  offset="0.2123" style="stop-color:#930006"/>
</linearGradient>
<path class="st5" d="M117.9,24.9l-9.2,27.2H77.3C77.3,52.1,83.5,24.9,117.9,24.9z"/>
<linearGradient id="SVGID_6_" gradientUnits="userSpaceOnUse" x1="63.0735" y1="173.186" x2="155.8125" y2="176.4245">
	<stop  offset="0" style="stop-color:#0D477B"/>
	<stop  offset="0.1567" style="stop-color:#4778CE"/>
</linearGradient>
<polyline class="st6" points="145.2,192.1 156.5,157.5 73.9,157.5 62.4,192.1 "/>
<linearGradient id="SVGID_7_" gradientUnits="userSpaceOnUse" x1="44.5566" y1="180.0309" x2="76.1103" y2="160.3139">
	<stop  offset="0" style="stop-color:#2358A4"/>
	<stop  offset="0.3532" style="stop-color:#4778CE"/>
</linearGradient>
<path class="st7" d="M74.3,157.5l-11.9,34.7c-13.2,0-25-15.7-18.8-34.8L74.3,157.5"/>
<g>
	<path class="st8" d="M168.6,192l33.1-99.6h33.7l-5.2,15.6c6.6-6.6,12.8-11.3,18.7-14.3c5.9-3,12-4.4,18.4-4.4
		c10.3,0,17.8,2.8,22.5,8.3c4.7,5.5,6.2,13.3,4.5,23.3c-0.6,3.4-2.2,9.1-4.7,17c-0.2,0.7-0.4,1.3-0.5,1.8L271.8,192h-35.2l17.4-52.8
		c0.5-1.5,1-3,1.4-4.4c0.4-1.4,0.7-2.7,0.9-3.7c0.8-4.3,0.2-7.6-1.7-9.9c-1.9-2.2-5.1-3.3-9.6-3.3c-6.1,0-11.3,2.2-15.5,6.6
		c-4.2,4.4-7.9,11.4-11.1,21.1L203.3,192H168.6z"/>
	<path class="st8" d="M454.9,39.3L404.7,192h-33.1l4.3-12.9c-5.9,5.6-12,9.8-18.4,12.7c-6.4,2.9-12.9,4.3-19.7,4.3
		c-11.4,0-20.1-4.3-25.9-13c-5.8-8.6-7.6-19.8-5.2-33.5c3-17.2,10.4-31.5,22.2-42.8c11.8-11.3,25.2-16.9,40.1-16.9
		c6.7,0,12.5,1.4,17.4,4.2c4.9,2.8,9.3,7.2,13,13.1l0.5-2.9c0.3-2,0.8-4,1.4-6.2c0.6-2.1,1.2-4.3,1.9-6.5l17.3-52.3H454.9z
		 M343.6,145.1c-1.1,6.4-0.1,11.5,3.2,15.4c3.2,3.9,8,5.8,14.4,5.8c7,0,13.2-2.7,18.8-8.1c5.6-5.4,9.1-12.2,10.5-20.4
		c1.1-6.2,0-11.2-3.3-15c-3.2-3.8-7.9-5.8-14.1-5.8c-7.2,0-13.5,2.6-19,7.9C348.5,130.2,345,137,343.6,145.1z"/>
	<path class="st8" d="M461.3,92.4h34.8l-13.5,41.2c-1.7,5.5-3.1,10-4.2,13.7c-1.1,3.6-1.7,6-1.9,7.1c-0.8,4.7-0.3,8.3,1.5,10.8
		c1.8,2.5,4.9,3.7,9.3,3.7c10.1,0,18.9-11.5,26.4-34.4c0.4-1.2,0.7-2.2,1-2.9l12.9-39.3h34.9l-14.8,45l-0.6,2.1
		c-7.1,21.4-15,35.6-23.5,42.8c-5.4,4.5-11.7,7.8-18.8,10.1c-7.1,2.3-14.9,3.4-23.4,3.4c-14.6,0-25.6-3.3-32.9-10
		c-7.3-6.6-10-15.7-8-27c0.5-2.6,1.2-5.9,2.4-9.9c1.1-4,3.1-10.1,5.9-18.4L461.3,92.4z"/>
	<path class="st8" d="M553.5,192l32.7-99.6h33.7l-5.3,16.9c4.2-6.3,9.1-11.1,14.8-14.4c5.7-3.3,12.1-4.9,18.9-4.9
		c0.7,0,1.5,0,2.4,0.1c0.9,0.1,2.3,0.3,4.2,0.6l-12.3,31.2c-2.2-0.5-4.2-0.9-6-1.2c-1.8-0.3-3.5-0.4-5.2-0.4
		c-6.8,0-12.5,2.1-17.1,6.4c-4.6,4.2-8.4,10.8-11.4,19.7L588.2,192H553.5z"/>
	<path class="st8" d="M717.6,178.6c-5.7,5.6-11.8,9.8-18.1,12.7c-6.4,2.9-12.9,4.3-19.7,4.3c-11.4,0-20.1-4.3-25.9-12.9
		c-5.9-8.6-7.6-19.8-5.3-33.5c2.9-17.2,10.3-31.5,22.1-42.9c11.8-11.4,25.2-17,40-17c6.9,0,12.8,1.4,17.8,4.3
		c5,2.9,9.1,7.3,12.5,13.2l4.7-14.4h33.3L746.4,192h-32.7L717.6,178.6z M684.5,145.7c-1.1,6.4,0,11.5,3.2,15.4
		c3.2,3.9,8,5.8,14.4,5.8c7,0,13.2-2.7,18.8-8.1c5.5-5.4,9-12.2,10.4-20.4c1-6.2-0.1-11.2-3.3-15c-3.2-3.8-8-5.8-14.2-5.8
		c-7.1,0-13.4,2.7-18.9,8C689.3,130.9,685.8,137.6,684.5,145.7z"/>
	<path class="st8" d="M772.2,192l32.4-99.6h33.7l-5.1,15.6c6.5-6.6,12.8-11.3,18.6-14.3c5.9-3,12-4.4,18.4-4.4
		c10.3,0,17.8,2.8,22.6,8.3c4.8,5.5,6.3,13.3,4.6,23.3c-0.6,3.4-2.1,9.1-4.6,17c-0.2,0.7-0.4,1.3-0.5,1.8l-17,52.3h-35.2l17.1-52.8
		c0.5-1.5,1-3,1.4-4.4c0.4-1.4,0.7-2.7,0.9-3.7c0.7-4.3,0.1-7.6-1.8-9.9c-1.9-2.2-5.1-3.3-9.6-3.3c-6.1,0-11.2,2.2-15.4,6.6
		c-4.2,4.4-7.8,11.4-11,21.1L806.9,192H772.2z"/>
	<path class="st8" d="M996.3,128.8c-3-3.9-6.1-6.8-9.5-8.7c-3.4-1.9-7.1-2.9-11.2-2.9c-6.9,0-13.1,2.7-18.7,8
		c-5.5,5.4-9,12-10.3,19.9c-1.1,6.6-0.1,11.8,2.8,15.6c3,3.8,7.5,5.8,13.7,5.8c3.9,0,7.8-0.7,11.7-2.1c3.9-1.4,7.8-3.5,11.9-6.2
		L976.1,191c-4.9,1.6-9.7,2.9-14.1,3.7c-4.5,0.8-8.8,1.2-13.1,1.2c-14.1,0-24.7-4.6-31.9-13.7c-7.2-9.1-9.6-21-7.1-35.7
		c2.9-17.1,10.5-31.1,23.1-41.7c12.5-10.7,27.5-16,45-16c5.6,0,10.8,0.8,15.5,2.4c4.8,1.6,9,4,12.7,7.1L996.3,128.8z"/>
	<path class="st8" d="M1042.2,150.5l-0.4,2.3c-1,6.3-0.2,11.1,2.5,14.4c2.7,3.3,7.1,4.9,13.3,4.9c4.3,0,8.6-0.9,12.7-2.7
		c4.1-1.8,8.7-4.7,13.8-8.7l15.8,19.1c-6.5,5.4-13.7,9.4-21.5,12.1c-7.8,2.7-16.3,4-25.4,4c-16.2,0-28.1-4.3-35.6-13
		c-7.5-8.6-10-20.8-7.4-36.3c2.8-17,10.4-30.8,22.8-41.5c12.4-10.6,27.1-16,44-16c15.3,0,26.9,4.7,34.7,14.1
		c7.8,9.4,10.4,21.8,7.9,37.3c-0.2,1.4-0.8,3.9-1.8,7.5c-0.3,1.1-0.5,1.9-0.7,2.4H1042.2z M1088,130.3c0.6-5.4-0.5-9.7-3.3-12.8
		c-2.8-3.2-6.8-4.7-12.2-4.7c-4.9,0-9.5,1.5-13.8,4.6c-4.3,3.1-8,7.4-10.8,12.9H1088z"/>
</g>
</svg>
